<svg xmlns="http://www.w3.org/2000/svg" viewBox="0 0 1023.08 1021.28"><g id="Layer_2" data-name="Layer 2"><g id="Pluff_Circle" data-name="Pluff Circle"><g id="Vector_layer" data-name="Vector layer"><path d="M930.35,342.12A478.88,478.88,0,0,0,891,263a470.94,470.94,0,0,0-53.63-70.77,457.57,457.57,0,0,0-66.61-59.57A437.85,437.85,0,0,0,607.58,58.53a452.89,452.89,0,0,0-347.72,64.82,460.87,460.87,0,0,0-170.11,207c-1.39,3.49-2.87,7-4.19,10.49l-2,5.28c-.67,1.76-1.33,3.52-1.94,5.3q-3.76,10.65-7,21.46a441.27,441.27,0,0,0-10.73,43.81A450.38,450.38,0,0,0,66,595.16,468.57,468.57,0,0,0,135,758.3q12.36,18.45,26.41,35.66,7,8.61,14.44,16.85c1.21,1.39,2.46,2.75,3.72,4.1L183.3,819c2.51,2.72,5.14,5.32,7.7,8a482.48,482.48,0,0,0,67.81,57,476,476,0,0,0,161.66,72.33,451.78,451.78,0,0,0,88.77,11.8,439.09,439.09,0,0,0,89.7-6.25,436.64,436.64,0,0,0,86.79-24.47A430.47,430.47,0,0,0,835,837.93a437.84,437.84,0,0,0,55.77-70.37,455.84,455.84,0,0,0,40.28-79.69q8.07-20.77,14-42.21c4-14.25,7.32-28.69,10-43.22a481.21,481.21,0,0,0,7.72-88,485.19,485.19,0,0,0-32.49-172.37ZM959,514.46a411.69,411.69,0,0,1-11,86.49,421.25,421.25,0,0,1-12.17,41.77q-7.2,20.5-16.36,40.18a442.56,442.56,0,0,1-43.88,74.26A465.78,465.78,0,0,1,751.6,874,459.62,459.62,0,0,1,676,913.34a469.91,469.91,0,0,1-81.59,24.82c-14,2.83-28.07,5.15-42.27,6.69s-28.47,2.5-42.78,2.78a436.38,436.38,0,0,1-85.67-6.93,423.3,423.3,0,0,1-122.35-42.16,429.33,429.33,0,0,1-37.32-22.24,422.29,422.29,0,0,1-160-200.7,436.56,436.56,0,0,1-22.52-83.39,446.78,446.78,0,0,1-5.74-85.82q.65-21.48,3.4-42.77c1.79-14.17,4.33-28.24,7.46-42.15A444.71,444.71,0,0,1,155,266.13a437.36,437.36,0,0,1,196.77-156.3,447,447,0,0,1,165.65-32A444,444,0,0,1,601.84,86,459.15,459.15,0,0,1,760,148.59c48.47,30.63,91.46,70.93,124.56,118.71a414,414,0,0,1,41.92,76.4A420.41,420.41,0,0,1,959,514.46Z"/><path d="M1023.06,498.08a491,491,0,0,0-3.22-50.53A506.45,506.45,0,0,0,823.32,104.22,515.37,515.37,0,0,0,542.05.82c-4.21-.18-8.41-.47-12.62-.56L523.11.1C521,0,518.9,0,516.8,0Q504.17-.07,491.55.5a490.44,490.44,0,0,0-50.21,4.8c-66.57,9.72-130.7,33.38-187.68,68A524.18,524.18,0,0,0,106.78,206.18Q91.84,226,78.84,247.2c-4.33,7-8.47,14.21-12.47,21.45-1,1.79-2,3.62-3,5.45l-2.91,5.48c-2,3.64-3.73,7.38-5.6,11.06a539.54,539.54,0,0,0-35.25,92.62A532.38,532.38,0,0,0,2.8,580.62,505.3,505.3,0,0,0,23,678.71a492.76,492.76,0,0,0,17.43,47.2,499.51,499.51,0,0,0,22.2,45.23,488.62,488.62,0,0,0,57.81,82.65,481.44,481.44,0,0,0,160,121,489.22,489.22,0,0,0,94.85,33,510.39,510.39,0,0,0,99,13.19q24.92.87,49.75-.71c16.54-1,33-2.83,49.32-5.36a538.49,538.49,0,0,0,95.73-24.24,542.25,542.25,0,0,0,170.06-97.8,535,535,0,0,0,69.06-70.65,526.58,526.58,0,0,0,55-82.7,511.78,511.78,0,0,0,38.38-92.28,493.83,493.83,0,0,0,21.41-149.15Zm-42.2,143.56c-14.5,62.46-41.23,122.71-79.49,175.26a462.9,462.9,0,0,1-65.25,72.41,470.12,470.12,0,0,1-168.35,97.23,460.36,460.36,0,0,1-95.39,20.23,467.36,467.36,0,0,1-48.6,2.53q-24.3,0-48.46-2.47a494.83,494.83,0,0,1-94.58-19A521.21,521.21,0,0,1,211.68,900a513.83,513.83,0,0,1-69.35-65.31,524.44,524.44,0,0,1-56.26-77C77.93,744,70.29,729.92,63.43,715.49s-13.12-29.15-18.69-44.15a488.8,488.8,0,0,1-24.23-93A473.41,473.41,0,0,1,20,433.57,480.27,480.27,0,0,1,29.71,386a472.12,472.12,0,0,1,153-242.86,488.05,488.05,0,0,1,79.76-54.5A498.88,498.88,0,0,1,351,50.94Q374,43.71,397.44,38.78c15.63-3.33,31.42-5.83,47.27-7.65A497.43,497.43,0,0,1,633.9,46,489.24,489.24,0,0,1,871.43,196.25,496.6,496.6,0,0,1,988.72,451.61,513.82,513.82,0,0,1,980.86,641.64Z"/><path d="M543,401.8c-1.14,2-2.34,4-3.63,5.9-5.19,7.66-11.12,15.29-13.46,24.41-3,12,1,23.22,10.4,31.16,10.78,8.71,24.78,11.82,38.16,14,11.84,2.78,25.08-2.9,23.71-16.64-.5-4.16-2.34-8-3.09-12.15-.41-2.39-.76-4.79-1.08-7.2,1.28-16.58,2.1-33.3,5.94-49.51,4.06-15.31,9.47-30.25,13.61-45.56,2.57-9.54,5.24-19,8.11-28.5,8.55,7,17.31,13.74,25.79,20.82a75.85,75.85,0,0,0,9.54,7.34c6.29,3.88,14.36,3.12,20.5-.7,11.29-7,18.7-23.92,23.2-36.07,3.36-8.42-.06-18.93-7.91-23.58-6.53-3.53-14.35-2.52-21.41-4.14s-13.79-4.88-20.37-8.07c-6.3-3.3-12.89-6.34-18.75-10.41,4.21-12.67,9.06-25.15,12.39-38.1,2.52,1,5,2.11,7.47,3.26,17.94,9.17,33.37,22.73,47.29,37.15,8.34,9.87,18,26.33,33.08,18.09,6.71-3.69,8.87-11.82,8.84-19,.26-5.22.5-10.44.3-15.66-.5-10.18-1.93-21.1-8.64-29.22-3.33-4-7.47-6.89-11.77-9.73-10.38-6.77-20.52-13.9-31.12-20.35-10.87-6.52-21.74-14.27-33.36-19.85-2.18-1.45-4.17-3.12-6.35-4.55-3.06-1.7-5.34-2.39-8.78-3.94a25,25,0,0,0-8.22-1.38c-4.38-.21-8.91-.35-13.08,1.25-4.75,2.66-9.71,5.4-13.39,9.49-2.32,2.63-3.37,6.05-4.71,9.23a71.1,71.1,0,0,0-3.92,13c-3.21,9-3.77,18.66-4.85,28.08-3.42,20.17-7.47,40.27-12.65,60.08-6.64,24.67-14.82,48.9-22.37,73.3C553.38,370,548.56,386,543,401.8Z"/><path d="M668.41,423.24c-8.92,10.71-17.56,21.64-26.15,32.6-2.9,2.13-5.82,4.22-8.71,6.34a31,31,0,0,0-6.46,5.86c-13.07,17.22,1.25,33.44,17,41.65,8.08,6.76,17.32,12.16,27.87,13.39,10.07,1.5,19-3.12,23-12.56,3.13-7,3.07-14.9,4.08-22.39a96.4,96.4,0,0,1,10.49-34.29c5.9-11.49,13.66-21.89,20.63-32.74,1.15-1.7,2.28-3.41,3.41-5.13,4.54-5.22,9.08-10.43,13.53-15.73,1,1.66,1.91,3.35,2.8,5.07a166.47,166.47,0,0,1,7.34,17.3c2.63,8.44,4.07,19.19,14.13,21.74,7.72,2,13.67-1.79,19.23-6.68,8.16-6.84,19.41-15.38,16.09-27.48a18.29,18.29,0,0,0-7.18-10c-.69-.47-2.21-1.64-3.68-2.88a39.36,39.36,0,0,1-4.82-5.94c-2.63-3.85-4.92-7.92-7.22-12a73.36,73.36,0,0,1,6.84-32.68c2.29-4.42,3.43-4.64,5.26-5.23,6.06,10.56,12.16,21.1,17.88,31.85a156.76,156.76,0,0,1,11.8,29.19c1.53,5,3.09,10,3.51,15.29.52,8.42-2.53,16,4.3,22.79,5.14,5.63,13.55,5.92,20,2.72a88.25,88.25,0,0,0,10-6A189.1,189.1,0,0,0,883.63,422c3.88-3.11,7.27-7.64,6.94-12.85,0-8.11-6.85-12.68-12.71-17-11.14-17.89-18.24-37.9-27.32-56.85-9.57-19.83-22.45-38.44-39.5-52.56-6-5-12.73-9.66-20.62-10.8-11.65-1.86-20.41,4.74-26,14.37-4,6.35-7.59,13-11.37,19.54-7.38,13-16,25.19-24.69,37.39C709.34,370.61,690.13,397.94,668.41,423.24Z"/><path d="M378.36,197.13c.93,5.17,1.86,10.35,3.06,15.46,1.85,7.86,3.91,15.79,7.42,23,2.79,9.32,6.17,18.48,9.48,27.61a166.39,166.39,0,0,0,12.54,26.89q.6,1.08,1.26,2.13a102.75,102.75,0,0,0,29,33.51c11.36,8.81,24.47,16.35,39.11,17.28,36,4.61,66.12-23.22,77.63-55.41,8.92-24.33,9.41-50.62,9.78-76.27.07-1.1.14-2.23.2-3.36.85-6.93,1.46-13.89,1.71-20.87.46-16.72,6.76-36.1-3.86-50.87-9.15-11.75-27.21-10.61-40.7-10.51-13.1,1.34-35.75,4.44-33.93,22.07,1.3,6,5.28,11,6.7,17.06,4.2,13.89,6.2,28.35,9.32,42.52a95.57,95.57,0,0,1,.19,14.26c-1.38,12.27-6,30-13.68,39.71a65.36,65.36,0,0,1-5.2,5.06,15,15,0,0,1-7-1A17.49,17.49,0,0,1,479,264a65.35,65.35,0,0,1-12-16.69c-7.91-15.29-11.56-32.11-14.8-48.89-.21-2.18-.4-4.35-.54-6.54-.63-7.21-.49-14.46-.83-21.68-.25-5-1.28-10.14-4.12-14.39-5.63-8.52-16.65-10.05-26.1-9.41a61.41,61.41,0,0,0-14.33,2c-14.51,4.1-34.12,7.39-32.33,26.69C375.07,182.46,377.37,189.66,378.36,197.13Z"/><path d="M294,261.78c18.7,39.27,36.2,79.31,49,120.94,9.11,29.92,13.37,61,19,91.69,2.83,14.82,5.36,29.7,7.16,44.68.27,7.44,5.54,14.75,13.1,16.07,11.7,2.12,18.58-9.64,25.35-17.13,19.8-25.62,44.73-47.76,74.56-60.91,8.54-3.58,17.59-6.85,20.2-16.83,2.17-7.57-.26-15.46-3.48-22.36-6.15-13.89-13.58-27.26-18-41.85-1.44-5-2.75-10-3.85-15.11-.72-3.32-1.44-6.63-3.46-9.46-4.57-6.69-14.61-8.36-21.06-3.43-3.78,2.67-5.83,7-7.95,10.94-1.63,3.16-3.21,6.34-4.89,9.48a127.13,127.13,0,0,1-21.34,28c-13.41-22.25-22.56-46.74-33.26-70.33-8.42-19.87-18.67-38.94-26.44-59.07-5.82-16.85-10.62-34.2-12.59-52-.5-4.69-.62-9.42-1.48-14.07-1.66-8.93-10.22-16.51-19.55-15.3-5,.44-9.37,3-13.65,5.33-12.05,6.76-33.73,17.32-39.79,29.92C262.42,241.6,278.83,251.93,294,261.78Zm28.85-14.38.1-.08c.06.25.12.51.19.77l-.58-.49Z"/><path d="M346.38,654.45c-5-7.2-13.88-10.67-21.46-15-16.7-8.34-29.66-21-41.05-34.9-3.51-4.2-6.9-8.47-10.21-12.8-4.51-8.49-9.17-16.92-14.21-25.19-2.93-5-5.94-10.05-9-15,16.83-15.33,31.48-32.71,42.54-51.95,11.69-19.2,21-39.63,25.74-61.26A132.26,132.26,0,0,0,321.65,421c5.63-34.66-5.49-71.77-36.91-93.41-19.12-13.41-44.54-18.33-67.47-12.16-23.42,6.5-41.84,23.07-55.92,41.12a121.39,121.39,0,0,0-14.2,22.7q-2,3-3.68,6.17a168.62,168.62,0,0,0-21.61,42.24c-4.85,13.51-6.06,27.78-10,41.48-2.54,12.36-17.54,24.12-9.29,37,7.16,9,20.38,10.34,30.28,15.78,8.93,4.65,15.87,11.23,22,18.49,2.15,3.77,4.28,7.54,6.36,11.34,11.56,18.8,23,37.63,32.13,57.58,12.4,25.22,27.35,49.25,39.56,74.56,6.38,12.84,12.95,25.71,17.31,39.29a112,112,0,0,1,3.52,17.42c.34,5.66,1.9,11.73,8,14.26,10.85,4.69,19-5.58,24.28-13A199,199,0,0,1,301,723.89c8.92-9.25,18.51-17.91,27.7-26.92C340,686,358,670.73,346.38,654.45ZM204.05,354.71s0,.05,0,.07l-.09,0ZM181.64,372.1c.42-.21.86-.41,1.3-.6l.16.1Zm5.78-1.6-.06-.11,1-.05Zm46.1,96.55c-2.79,3.9-11.83,12.08-18.47,19.92-1.06-1.62-2.13-3.23-3.12-4.89-7.72-13.55-18.23-26.58-23-41.21.2-13.84,6.19-26.93,13.67-38.61C208.5,394,213,384,222.48,378.73c4.88-3.15,10.4-2.68,15.9-2.14a37.11,37.11,0,0,1,9.21,3.35c1.3.82,2.55,1.7,3.82,2.58a30.57,30.57,0,0,1,5,4.21,26.24,26.24,0,0,1,4.31,5.95l.27.54c.18.37.36.74.53,1.12a2.56,2.56,0,0,0,.11.24c.62,1.37,1.18,2.76,1.67,4.17s1,3,1.37,4.57a78.45,78.45,0,0,1-6.39,29.07C252.4,445.31,243,456.31,233.52,467.05Z"/><path d="M510.27,625.33c1.59-1.36,2.24-3.68,2.46-5.74.27-4.16-4.09-5.71-6.7-7.9a66.48,66.48,0,0,1-9.43-10c-5.5-6.66-10.71-13.73-14.58-21.53a50.75,50.75,0,0,1-1.82-5.64c-.42-1.22-.26-2.83-1.41-3.63a7.83,7.83,0,0,0-3.63-1.09c-.56-.29-1.3.13-1.83.39-.82.34-1.63.75-2.44,1.15-5.23,2.18-8.88,4.48-11.47,9.87a3,3,0,0,0,.11,2.83,7.34,7.34,0,0,0,5,4,17.54,17.54,0,0,1,5.51,7.88c3.61,9.52,6.68,19.32,9.54,29.12a41.34,41.34,0,0,1,1.16,9.92c.17,1.79-.17,3.68.36,5.4a6.4,6.4,0,0,0,4.78,3.12c4.23.06,7-4.69,10.12-7.08C500.45,632.28,505.66,629.22,510.27,625.33Z"/><path d="M535,716.09a8.18,8.18,0,0,0,6.95,3.5c6.72-.26,11.33-6.32,15.82-10.63,5.94-6.12,12.12-12.12,16.93-19.21,1.49-2.29,2.94-4.6,4.3-7,3.71-4.53,7.14-9.39,9.21-15,5.34-14.44,1.56-32.78-11.75-41.13-9.63-5.09-21.09-3.54-31.05-.36-6,2.08-11.58,5-17.26,7.79-2.52,1.22-3.94,1.78-4.77,2.77a20.06,20.06,0,0,0-3.7,2c-5.11,2.39-9.51,6.06-8.13,12,1.14,3.63,4.77,5.14,7.84,6.74,4,3.27,6.36,8,8.37,12.61a97.48,97.48,0,0,1,6.11,33C533.71,707.51,532.36,712.26,535,716.09Zm18.45-71.33c6.71-3.71,14.64-2,15.54,6.8.58,7.29-2.51,14.53-6.57,20.35-2,2.37-5,6.15-8.5,4.66a100,100,0,0,0-2.66-16.51c-.13-.77-1.8-6.33-3.06-8.31a1.15,1.15,0,0,0-.07-1.27.86.86,0,0,0-.09-.58A20,20,0,0,1,553.43,644.76Z"/><path d="M609.67,665.37c2.82-.08,5.4-1.58,7.88-2.84a76,76,0,0,0,8.23-5.32c3.19-2,6.13-5.12,2.58-8.52a16.39,16.39,0,0,0-4-2.65,22.76,22.76,0,0,1-4.1-4.22,93.75,93.75,0,0,1-9.65-16c-1.75-3.32-1.22-7-1.05-10.56.53-2.87.93-5.68,1.28-8.61a110,110,0,0,0-.08-25.13l.12-1.39c1.06-4.17,2.52-10.7-3.17-11-2.34.11-3.92,1.65-5.44,3.27a47.21,47.21,0,0,0-5.51,4.59c-1.34,1.25-3.17,2.21-3.7,4.09-1,3.14,2.11,5.56,1.7,8.81v-.1c.14,5.44-.39,10.91-.66,16.34,0,1.28-.17,2.78-.21,4.27-2.79-1.33-5.62-2.52-8.5-3.68-3.82-1.19-6.46-2.76-7.34-6.92-.66-2.2-.46-6.63-2.79-7.69-1.1-1-2.67-1.14-4,.71s-1.61,4.41-2.6,6.54l-.3.68a4.34,4.34,0,0,0-.47.59c-1,1.67-1.72,3.48-2.69,5.17-.62,1.27-1.36,2.53-2,3.81a2.38,2.38,0,0,0-.31.54.86.86,0,0,0,.07-.1c-1,1.87-3.53,2.78-3.79,5.09-.09,3.75,4.77,4.81,7.77,4.52,4.48-.52,8.86.58,13.07,2,2.89,1,5.78,1.88,8.64,2.92,1.12.34,2.27.7,3.39,1.13l.47.27c3.15,2.63,4.95,6.67,7,10.27a105.92,105.92,0,0,1,6.93,13.85,24.6,24.6,0,0,1,1.32,8.23,21.72,21.72,0,0,0,.11,3.49l0,.09C607.33,663.67,607.71,665.29,609.67,665.37Z"/><path d="M640.81,637.52c7,6.57,11.74-5.84,16.09-9.76a81.18,81.18,0,0,0,7-7.57,135.73,135.73,0,0,1,13.29-10.78c5.06-3.65,9.71-5.94,8.41-13.33-1.21-6.34-8.35-19.25-15.47-12.28a13.68,13.68,0,0,0-2.51,5.42,36.17,36.17,0,0,1-3.75,8.34,181.5,181.5,0,0,1-13.28,18.65,1.82,1.82,0,0,1-2.47,0,5,5,0,0,1-1.08-1.08c-.48-1-.95-2.05-1.45-3.07-.15-.48-.29-1-.43-1.45a7.3,7.3,0,0,1,1.17-6,53.52,53.52,0,0,1,5.37-4.37c2.7-1.84,6.47-5.65,3.59-9-2-2.54-3.6-5.73-6.41-7.44-4.24-1.66-5,1.84-7.15,4.55a47,47,0,0,1-3.41,3.91c-.18.1-.35.2-.53.28a4.76,4.76,0,0,1-3.52.1c-.95-1.35-1.93-2.69-2.94-4a6.92,6.92,0,0,1,.67-3.51,39.19,39.19,0,0,1,3.52-3.17,110.46,110.46,0,0,1,10.59-7c3.5-2.11,7.39-3.73,10.32-6.7,3.25-3.4,2.29-8.66-1.27-11.39-2.5-2.54-4.66-5.55-7.75-7.37-3.19-2.08-7.93-1.34-9.86,2.16a54.07,54.07,0,0,1-4.36,6.79c-2.94,3.89-7.17,8.34-10.51,13a32,32,0,0,0-3.51,4.71c-3.27,4.46-5,8.34-2.7,13,1.19,6.14,5,12.15,7.24,17.79,2.13,5.17,9.67,20.62,15.49,27.79A25.59,25.59,0,0,0,640.81,637.52Zm35.6-37.41h0l-.09.19C676.36,600.24,676.38,600.17,676.41,600.11Z"/><path d="M435.05,650.54c-3.35,7.7-8.54,15.16-8.64,23.84.21,5,4.1,8.84,8.18,11.19,7.52,4.83,16.65,5,25.3,5.41,10.52.06,23.28.32,31.87-6.59a8.93,8.93,0,0,0,3.19-9.72c-1.18-3.91-4.36-6.7-6.76-9.86a74.16,74.16,0,0,1-6.29-10.71c-3-5.52-6-11-9.39-16.3-2.95-5.95-6.34-11.69-9.56-17.49-.86-1.46-2.63-4.39-4.77-7.56-4.13-6.8-8.27-13.59-11.75-20.78q-1.77-3.48-3.4-7c.12-4.43,1.89-6.9,5.27-9.52,6.72-5.13,14.94-7.79,22.15-12.11,2.26-1.28,4.51-3,5.36-5.6,1.74-5.15.19-10.77-1.22-15.82-2-5.83-3.89-15.09-10.82-16.32-8.13.34-9.07,11.75-12.13,17.52-2.38,4.06-5.91,7-9.56,9.89-4.77,3.65-9.8,7-14.68,10.53-10.8,7.91-21.78,15.61-33.2,22.56-4,2.57-8.91,4-12.18,7.64-5.11,6-.84,14.13,2.35,20,.44,3.32.59,6.73,1.64,9.93,3.32,9.92,13-4.54,16.28-8.09,4.94-6.12,9.76-12.15,14.4-18.56,1.56-2,2.75-4.23,4.57-6.08,1.55-1.32,3.13-1.65,4.16.47a60.66,60.66,0,0,1,3.63,9.09c3.64,10.76,7,21.7,8.48,33,.17,1.36.29,2.76.37,4.18a55.81,55.81,0,0,1-1.34,8.89C436.09,647.9,435.59,649.23,435.05,650.54Zm8.31,21.92a12.89,12.89,0,0,0,.8,1.27H443C443.11,673.31,443.23,672.89,443.36,672.46Z"/><path d="M533.21,533.41a42.39,42.39,0,0,1,6.86-.29c4.43.84,9.85.42,12.24-3.82,2.52-4.5,2.17-11.86.1-16.49-1.83-3-5.5-.55-8.26-.95-4.28-.13-8.15-1.34-12.51-1.5-10.23-.33-20,3.45-28.6,8.87a79,79,0,0,0-13.31,9.44c-5,4.25-13.94,11.53-7.7,18.32a18.83,18.83,0,0,0,2.21,1.77c2.65,3.18,6.43,5.5,8.82,8.94,1.37,1.82,2.63,3.7,3.85,5.62l.34.72a207.58,207.58,0,0,0,9.93,18.33c.54,1.1,1.09,2.2,1.64,3.3,2.61,5.49,5.41,10.89,7.84,16.46,1.64,4.07,2.26,10.56,7.63,11.35,5,.73,8.79-3.44,12.34-6.47l.76-.53c2.59-1.85,5.19-3.67,7.87-5.37,5.27-3.39,10.7-6.51,16.15-9.6,4.42-2.59,9-5.38,12-9.69,6.64-8.36-.72-31-12.59-28.24-11,5.08-2.22,18.85-27.8,29.8-.26-.06-.51-.13-.76-.21a20.64,20.64,0,0,1-3.25-3.71,66.11,66.11,0,0,1-4.14-6c-2.62-4.45-2.82-10.37.81-14.28,4-1,9.27,3.15,13.53,2.1,5.8-1,6-7.11,4.36-11.78a13.12,13.12,0,0,0-2.25-4.72c-3.52-4.2-9.66-3.28-14.33-2.06a75.41,75.41,0,0,0-9.92,3.8c-1.5-.07-4.91-.3-4.25-2.57C516.57,537.91,526.54,534.42,533.21,533.41Zm15-18.58a1.54,1.54,0,0,0,0,.17l-.2-.14Z"/><path d="M405.47,819.94c-4.81,1.11-8.42,4.76-11.71,8-4.67,4.76-9.51,9.46-15.4,12.85-5,3.07-11.67,4.3-17.12,1.59-6.33-3.82-10-10.54-13.18-16.77-3.93-9.2-5.84-19.29-4.58-29.2a73.19,73.19,0,0,1,4.44-17.31C349.36,776,351,773,352.75,770c4.6-7.82,11.69-16.12,20.3-20.09,5.87-2.06,13.74-1.94,18.24,2.66,2.63,3.24,3.21,7.57,5.89,10.79a13.53,13.53,0,0,0,21.06.93c8.13-9.67,3.95-23.81-4-32.38a38.9,38.9,0,0,0-17.75-9.84c-10.77-1.75-22.41-1.5-32.32,3.28-26.4,13-43.43,45.41-47.44,72.54a61.43,61.43,0,0,0,.44,21,57.51,57.51,0,0,0,10.14,32.21c7.49,10.35,20.05,16.78,33,18.77a52.48,52.48,0,0,0,41-11.29c7.62-6.5,14.51-14.53,16.88-24.18C420.22,826.36,414.75,818.27,405.47,819.94Z"/><path d="M497.58,782.37c-3.54-10.83-8.8-23.34-21-27.36-10.25-7.29-23.32-3.52-31.42,4.85-19.22,17.45-25,53.22-23.88,77.57,1.24,20,11.43,55.54,36.47,57.94,14.32,2,26.52-7.87,33-19.14,4.42-7.38,6.93-15.62,8.74-23.88C503.71,829.28,504.56,805,497.58,782.37ZM456.51,862c-2.71-.17-4.79-5.49-5.86-7.67-.19-.48-.37-1-.53-1.46-.77-5.3-1.51-10.6-2.07-15.91a164,164,0,0,1-.54-29.31c.46-2.55,1-5.85,1.77-9.35a47.5,47.5,0,0,1,2.78-7.27c1.84-3.78,7.38-13.41,12.78-10.53,3.63,2.34,5.45,6.48,6.47,10.39,1.49,7.51,1.68,13.92,2.24,22.17C474.44,823.94,472.58,862.74,456.51,862Z"/><path d="M672.33,722.3c-7.44-8.07-17.75-13-28-17.11a50.14,50.14,0,0,0-19.16-3.76c-8.82-.56-19.45.74-27.36,5.15-6.22,3.19-10,9.31-5.7,15.5,1.13,1.59,2.76,2.75,3.95,4.29a51.75,51.75,0,0,1,2.88,4.58c3.88,7,6.55,14.44,10.82,21.23,1,1.69,2.07,3.53,3.19,5.35q5.07,12.57,10.14,25.15c4.09,10,7.87,20.07,11,30.34,2.9,10.46,5.82,20.9,9,31.29.83,2.84,1.62,5.69,2.28,8.57a65.35,65.35,0,0,1,.07,8.16c-1.06,8.57,5.44,13.27,13.85,14.1,8.91,1.31,23.68-2,20.17-13.27a1.8,1.8,0,0,0-.08-.21,10.19,10.19,0,0,0-.66-3.3c-1.83-6.28-3.51-12.69-5.36-19q-.25-1.08-.57-2.13a72.24,72.24,0,0,0-2.34-7.12c-.58-1.71-1.18-3.41-1.82-5.1-2.15-5.69-4.52-11.31-6.84-17,15.32-9.28,27.82-25.45,29.2-42.85A54.61,54.61,0,0,0,672.33,722.3Zm-10.39,41.32v-.52a16.76,16.76,0,0,1-.08,1.74c-.09.64-.19,1.27-.29,1.9a21.19,21.19,0,0,1-.56,2.51c-.21.77-.44,1.53-.67,2.3-.33,1.33-.43,2.7-.87,4a5.91,5.91,0,0,1-5.6,4.43h-.34a6.33,6.33,0,0,1-.76,0l-.13,0v0a6.12,6.12,0,0,1-3.64-2.12,14,14,0,0,1-1.53-2.39c-.49-.88-1-1.74-1.48-2.62-.67-1.2-1.27-2.44-1.94-3.64-.85-1.5-1.77-3-2.62-4.46s-1.5-3-2.28-4.42c-.19-.31-.4-.61-.58-.93-.38-.65-.72-1.31-1.08-2s-.85-1.45-1.31-2.16-.91-1.56-1.33-2.36-.89-1.64-1.33-2.47-.93-1.87-1.38-2.82c-.35-.74-.74-1.46-1.12-2.19-.13-.26-.25-.51-.36-.77l-.11-.16h0v0h0l0,0,0,0,0,0,.09.13-.14-.21,0-.05h0l0,0h0c-.06-.09-.12-.19-.19-.28l.09.13c-.69-1-1.35-2.06-1.94-3.15,0-.05,0-.09-.07-.14h0c-.09-.17-.18-.34-.28-.5h0c-.15-.27-.3-.54-.46-.81l-.05-.1a5.6,5.6,0,0,1-.75-1.74,5.79,5.79,0,0,1-.17-1.44,5.94,5.94,0,0,1,.12-.86v0a6.33,6.33,0,0,1,.62-1.64,4.92,4.92,0,0,1,2.63-2.17,7,7,0,0,1,.69-.23l.15,0a7.73,7.73,0,0,1,.81-.16,6,6,0,0,1,3.09.43c.48.2,1,.4,1.48.56l-.63-.2h0a23.41,23.41,0,0,1,2.95,1.15,16.48,16.48,0,0,1,1.48.83c.88.52,1.81,1,2.72,1.43s1.71.8,2.55,1.24a20.63,20.63,0,0,1,3.12,2c.47.35,1,.68,1.43,1h0l0,0,0,0a10.76,10.76,0,0,1,1,.87l.76.73c.45.44.94.86,1.39,1.31.29.29.55.59.81.9s.5.63.75,1a32.42,32.42,0,0,1,3.13,4.86c.76,1.53,1.7,3,2.31,4.57.3.81.56,1.64.81,2.47s.56,1.86.76,2.81a24.87,24.87,0,0,1,.4,2.84C662,762.39,662,763,661.94,763.62Z"/><path d="M808.53,726.63c-4.83-2-9.72-3.9-14.57-5.86-8.47-3.21-17-6.21-25.45-9.49-6.56-2.51-13-5.22-19.39-8.17-7.21-3.58-14.23-7.5-21.7-10.56-7-4.57-14-9.2-21.29-13.49C696.25,673.43,683,664.82,671,667c-7.67,1.64-11,8.95-8.59,15.73a31.58,31.58,0,0,0,3.77,7.61c.94,2.05,2,4,3,5.82,5.51,9,12.31,17.26,17.36,26.52,6.39,12.07,11.1,24.84,15.3,37.71,5.07,14.84,6.33,30.58,6.25,46.09-.75,10.46.08,21.63,13.37,23.54,5.7.62,11.84-.66,16.27-4.24,6.44-5,10.86-13.84,5.85-21.11a62.22,62.22,0,0,1-7.34-14.36q-1.08-2.94-2.07-5.91c-.72-4.07-1.49-8.14-2.35-12.19,0-.12-.05-.24-.07-.36a77.47,77.47,0,0,0,13.46-6A142.25,142.25,0,0,0,765,751.63a65.27,65.27,0,0,0,9.75-10.13c5.09,2.56,10.6,4.53,15.45,7.42,6,3.86,8.18,11.67,16.47,12.32,13.07.92,19.66-16,14-25.7C818.22,731.06,813.24,728.57,808.53,726.63Zm-78,16.5a42.62,42.62,0,0,1-5.55,2.44q-1.25-4-2.63-8A121.87,121.87,0,0,0,711.73,714c10.93,3.62,21.91,7.13,32.75,11,2.22.83,4.42,1.7,6.62,2.59C746.25,734.62,738.47,739.44,730.56,743.13Z"/><path d="M631,851.11c-.69-1.17-1.35-2.35-2-3.53-2.76-5.47-5.3-11-7.6-16.57q-1.38-5.35-2.68-10.73c-5.8-22.69-9.28-45.95-17.43-68.06-3.38-8.56-6.68-17.57-13-24.62-5.1-5.56-14.81-5.46-18.16,1.69-1.91,4.28-2.39,9-3.23,13.53-1.22,7.25-2.26,14.53-3.49,21.78-2.11,11.66-4.39,23.27-5.94,35-5.52-15.44-8.37-31.84-16.16-46.49-3.68-7.07-12.2-17.09-20.91-10.29-3.46,2.95-3.57,7.6-3.85,11.7-.84,15-1.61,30.08-2.73,45.1-1.38,14.86-1.3,29.81-3.24,44.61-.42,3.29-.92,6.57-1.43,9.85-.32.91-.59,1.7-.8,2.27-3,8.81-4.21,18-7,26.9-.91,2.73-2,5.4-2.87,8.16-2.48,7.22,2.11,14.64,9.94,16.19,6.38,1.46,13,.36,19.36-.56,7.65-1,16.48-5.63,13.87-14.2-5.84-11.29-6.22-24.13-6-36.51a354.39,354.39,0,0,0,3.64-35.58c1.82,3.26,3.5,6.58,5.1,9.94,2.16,4.41,3.9,9.1,7.15,12.93a11,11,0,0,0,17.63-1c6.45-10.37,9.56-22.2,11.81-33.95,6.4,18.23,14.09,36,22,53.75a99,99,0,0,1,2.51,10.68c.35,4.55,1.93,9.17,6,12,5.23,4,12.6,3.64,18.48,1.16s12.86-6.34,13.91-12.9c.63-5.54-4-9.62-7.24-13.68A87.87,87.87,0,0,1,631,851.11Z"/><path d="M630.47,744.33l0,0v0Z"/><polygon points="630.47 744.33 630.47 744.33 630.48 744.33 630.47 744.33"/><polygon points="630.45 744.3 630.45 744.3 630.45 744.3 630.45 744.3"/><path d="M630.44,744.28h0v0Z"/><polygon points="630.36 744.17 630.36 744.17 630.36 744.17 630.36 744.17"/><polygon points="630.36 744.16 630.36 744.16 630.36 744.17 630.36 744.16"/><path d="M630.34,744.14v0h0Z"/><path d="M867.19,642.67c-4.49-3.3-10.16-1.44-15.07-3.31-10.09-3.36-19.67-8.25-29.36-12.77q-3-1.12-5.86-2.43l-5-2.41c-4.28-2.18-8.46-4.61-12.57-7.19-13-7.38-24.83-16.83-37.91-24-6.56-3.57-14.05-8.5-21.63-10.17-3.38-2-7-3.45-10.92-3a12.07,12.07,0,0,0-9.9,7.24c-2.44,5.3-5,11.61-3.15,17.55a12.23,12.23,0,0,0,7.87,7.93,29.52,29.52,0,0,1,4.75,1.61c4.25,2,8.47,4.2,12.7,6.3,7.81,4,16.06,6.82,24,10.41a126.57,126.57,0,0,0,23.19,8.92c-6.92-.7-13.85-1.29-20.77-1.94a118.12,118.12,0,0,1-36.38-10.65c-4.43-2.09-8.63-4.7-13.05-6.77a8.5,8.5,0,0,0-11.45,4.7c-1.11,2.58-1.85,5.32-2.91,7.91-2.6,5.82-4.86,14.86,1.37,19.51a103.32,103.32,0,0,1,9.74,5.89,82.43,82.43,0,0,0,17.22,8.67c3.59,2.08,7.24,4,10.88,6,7.44,4.2,14.87,8.43,22.26,12.75,11.47,7.4,22.88,14.92,34.42,22.22,6.25,5.68,15.25,11.09,17.72,12.65,4.4,2.57,8.9,5,12.88,8.29,1.86,1.64,3.21,3.81,4.87,5.68a8,8,0,0,0,12.1.1c2.87-3.47,3.08-8.4,3.77-12.8.31-2.13.62-4.26,1.11-6.35s1.53-4.18,1.68-6.44c.71-7-4.09-12.8-9.75-15.11-6.14-2.68-12.85-3.2-19.16-5.3-.8-.25-1.59-.52-2.38-.78-6.66-3.48-13.24-7.13-19.71-11-9.29-5.29-18.78-10.12-28-15.64-.84-.49-1.69-1-2.53-1.49,13.07,3,26.17,5.89,39.47,7.52,4.83.56,9.67,1.14,14.52,1.61,2.49.51,5,1,7.49,1.43,5.31,1.1,11.09,1.61,15.36,5.6,6.08,4.27,10.88,1.54,14.59-4.49,3-4.32,6.31-8.76,7.31-14.21C871.94,650.39,870.85,645.3,867.19,642.67Z"/><path d="M853.94,639.86h0l.18,0-.14,0Z"/><path d="M853.65,639.77l.17.05h0l.07,0-.12,0h0l-.07,0h0Z"/><path d="M872.7,562.91a116.08,116.08,0,0,1-29.24-10.21c-12.23-5.84-23.41-13.26-32.78-23.19-7.83-7.56-15.91-14.89-23.23-23-3.37-3.9-7-7.89-9.43-12.5-2-3.57-2-8.23-4.84-11.33a8.51,8.51,0,0,0-5.61-2.19c-6.1-.73-11.86,3.25-14.92,8.32s-9.2,14-5.18,19.84c1.71,2.16,4.35,3.23,6.56,4.77a83.86,83.86,0,0,1,8.33,6.22c8.65,6.77,16.66,14.27,24.81,21.62l3.72,3.48c-2.35.2-4.7.34-7.06.37A114.62,114.62,0,0,1,746,538.92c-5.47-2.43-11.93-2.1-14.12,4.53-.71,2.56-.42,5.16-.17,7.76.58,5.45,1.08,11.53,4.75,15.81,3.23,3.83,7.76,3.7,12.26,3.38,3.17-.16,6.33-.46,9.5-.51a167.73,167.73,0,0,1,21.6,1.37l5.06.37c7.17.54,14.35,1.13,21.51,1.63a131,131,0,0,1,17.11,3.48l.79.2,1.17.39c6.75,3.51,12.88,6.34,14.61,7.48,11.21,5.89,22.59,11.56,31.86,20.48,6.87,4.5,14.24-2.42,16.31-9.14,1.26-3.55,2.28-7.2,3.23-10.86a48.71,48.71,0,0,0,2-5.5C897.53,564.64,883.49,564.39,872.7,562.91Z"/></g></g></g></svg>